<svg width="17" height="19" viewBox="0 0 17 19" fill="none" xmlns="http://www.w3.org/2000/svg">
<mask id="path-1-outside-1_171_524" maskUnits="userSpaceOnUse" x="-0.655273" y="-0.195312" width="17" height="19" fill="black">
<rect fill="white" x="-0.655273" y="-0.195312" width="17" height="19"/>
<path d="M15.1494 17.8047H13.0635V10.2695H8.7627L4.22754 17.8047H1.79004L6.47754 10.1875C6.0791 10.1172 5.73926 10.0234 5.43457 9.90625C4.62598 9.60156 3.93457 9.08594 3.41895 8.37109C2.86816 7.60938 2.56348 6.67188 2.56348 5.64062C2.56348 3.74219 3.58301 2.20703 5.1416 1.49219C5.77441 1.17578 6.50098 1 7.67285 1H15.1494V17.8047ZM7.89551 8.33594H13.0635V2.96875H7.89551C7.0752 2.96875 6.65332 3.05078 6.2666 3.21484C5.30566 3.625 4.62598 4.50391 4.62598 5.65234C4.62598 6.82422 5.31738 7.69141 6.2666 8.08984C6.65332 8.25391 7.0752 8.33594 7.89551 8.33594Z"/>
</mask>
<path d="M15.1494 17.8047H13.0635V10.2695H8.7627L4.22754 17.8047H1.79004L6.47754 10.1875C6.0791 10.1172 5.73926 10.0234 5.43457 9.90625C4.62598 9.60156 3.93457 9.08594 3.41895 8.37109C2.86816 7.60938 2.56348 6.67188 2.56348 5.64062C2.56348 3.74219 3.58301 2.20703 5.1416 1.49219C5.77441 1.17578 6.50098 1 7.67285 1H15.1494V17.8047ZM7.89551 8.33594H13.0635V2.96875H7.89551C7.0752 2.96875 6.65332 3.05078 6.2666 3.21484C5.30566 3.625 4.62598 4.50391 4.62598 5.65234C4.62598 6.82422 5.31738 7.69141 6.2666 8.08984C6.65332 8.25391 7.0752 8.33594 7.89551 8.33594Z" fill="black"/>
<path d="M15.1494 17.8047V18.8047H16.1494V17.8047H15.1494ZM13.0635 17.8047H12.0635V18.8047H13.0635V17.8047ZM13.0635 10.2695H14.0635V9.26953H13.0635V10.2695ZM8.7627 10.2695V9.26953H8.19741L7.90591 9.75386L8.7627 10.2695ZM4.22754 17.8047V18.8047H4.79282L5.08433 18.3204L4.22754 17.8047ZM1.79004 17.8047L0.938381 17.2806L0.000474691 18.8047H1.79004V17.8047ZM6.47754 10.1875L7.3292 10.7116L8.10038 9.45843L6.65132 9.20272L6.47754 10.1875ZM5.43457 9.90625L5.79356 8.97288L5.78718 8.97048L5.43457 9.90625ZM3.41895 8.37109L4.22998 7.78609L4.2293 7.78515L3.41895 8.37109ZM5.1416 1.49219L5.55849 2.40114L5.57378 2.39413L5.58882 2.38661L5.1416 1.49219ZM15.1494 1H16.1494V0H15.1494V1ZM13.0635 8.33594V9.33594H14.0635V8.33594H13.0635ZM13.0635 2.96875H14.0635V1.96875H13.0635V2.96875ZM6.2666 3.21484L5.87605 2.29426L5.87404 2.29512L6.2666 3.21484ZM6.2666 8.08984L6.65715 7.16926L6.65364 7.16778L6.2666 8.08984ZM15.1494 17.8047V16.8047H13.0635V17.8047V18.8047H15.1494V17.8047ZM13.0635 17.8047H14.0635V10.2695H13.0635H12.0635V17.8047H13.0635ZM13.0635 10.2695V9.26953H8.7627V10.2695V11.2695H13.0635V10.2695ZM8.7627 10.2695L7.90591 9.75386L3.37075 17.289L4.22754 17.8047L5.08433 18.3204L9.61948 10.7852L8.7627 10.2695ZM4.22754 17.8047V16.8047H1.79004V17.8047V18.8047H4.22754V17.8047ZM1.79004 17.8047L2.6417 18.3288L7.3292 10.7116L6.47754 10.1875L5.62588 9.6634L0.938381 17.2806L1.79004 17.8047ZM6.47754 10.1875L6.65132 9.20272C6.30782 9.1421 6.03091 9.0642 5.79355 8.9729L5.43457 9.90625L5.07559 10.8396C5.44761 10.9827 5.85039 11.0923 6.30375 11.1723L6.47754 10.1875ZM5.43457 9.90625L5.78718 8.97048C5.15624 8.73273 4.62671 8.33611 4.22997 7.78609L3.41895 8.37109L2.60792 8.9561C3.24243 9.83576 4.09571 10.4704 5.08196 10.842L5.43457 9.90625ZM3.41895 8.37109L4.2293 7.78515C3.80723 7.20144 3.56348 6.47094 3.56348 5.64062H2.56348H1.56348C1.56348 6.87281 1.9291 8.01731 2.6086 8.95704L3.41895 8.37109ZM2.56348 5.64062H3.56348C3.56348 4.12345 4.36391 2.94903 5.55849 2.40114L5.1416 1.49219L4.72471 0.58323C2.8021 1.46503 1.56348 3.36092 1.56348 5.64062H2.56348ZM5.1416 1.49219L5.58882 2.38661C6.04879 2.15663 6.61315 2 7.67285 2V1V0C6.3888 0 5.50004 0.194936 4.69439 0.59776L5.1416 1.49219ZM7.67285 1V2H15.1494V1V0H7.67285V1ZM15.1494 1H14.1494V17.8047H15.1494H16.1494V1H15.1494ZM7.89551 8.33594V9.33594H13.0635V8.33594V7.33594H7.89551V8.33594ZM13.0635 8.33594H14.0635V2.96875H13.0635H12.0635V8.33594H13.0635ZM13.0635 2.96875V1.96875H7.89551V2.96875V3.96875H13.0635V2.96875ZM7.89551 2.96875V1.96875C7.00396 1.96875 6.43343 2.0578 5.87605 2.29426L6.2666 3.21484L6.65715 4.13543C6.87321 4.04376 7.14643 3.96875 7.89551 3.96875V2.96875ZM6.2666 3.21484L5.87404 2.29512C4.58487 2.84537 3.62598 4.06139 3.62598 5.65234H4.62598H5.62598C5.62598 4.94642 6.02646 4.40463 6.65917 4.13457L6.2666 3.21484ZM4.62598 5.65234H3.62598C3.62598 7.27059 4.60093 8.4752 5.87956 9.01191L6.2666 8.08984L6.65364 7.16778C6.03383 6.90761 5.62598 6.37785 5.62598 5.65234H4.62598ZM6.2666 8.08984L5.87605 9.01043C6.43343 9.24689 7.00396 9.33594 7.89551 9.33594V8.33594V7.33594C7.14643 7.33594 6.87321 7.26093 6.65715 7.16926L6.2666 8.08984Z" fill="black" mask="url(#path-1-outside-1_171_524)"/>
</svg>
