<svg width="32" height="32" viewBox="0 0 32 32" fill="none" xmlns="http://www.w3.org/2000/svg">
<path d="M17.693 31H14.333C13.3997 31 12.5597 30.5999 11.9997 29.9199C11.5064 29.3065 11.3197 28.5199 11.493 27.7732L12.0397 25.36C12.1464 24.9067 12.5464 24.5865 13.013 24.5865H19.013C19.4797 24.5865 19.8797 24.9067 19.9864 25.36L20.533 27.7732C20.7064 28.5732 20.5464 29.3466 20.053 29.9599C19.5064 30.6133 18.653 31 17.693 31ZM13.813 26.56L13.4397 28.2C13.3997 28.4 13.4797 28.5599 13.5597 28.6533C13.733 28.8666 14.013 28.9866 14.333 28.9866H17.693C18.0397 28.9866 18.333 28.88 18.493 28.68C18.5997 28.5466 18.6264 28.3866 18.5864 28.1866L18.213 26.5467H13.813V26.56Z" fill="black"/>
<path d="M19.013 26.5601C18.733 26.5601 18.4664 26.4534 18.2664 26.2268C17.9064 25.8134 17.933 25.1867 18.3464 24.8134L20.653 22.76C21.573 21.9466 21.533 21.7468 20.853 20.8934L16.7864 15.7334C16.5597 15.4534 16.293 15.2933 16.013 15.2933C15.733 15.2933 15.4664 15.4534 15.2397 15.7334L11.173 20.8934C10.453 21.8134 10.4664 22.0134 11.3464 22.7334L13.6797 24.8134C14.093 25.1734 14.133 25.8134 13.7597 26.2268C13.3864 26.6401 12.7597 26.68 12.3464 26.3067L10.0397 24.2533C8.3597 22.88 8.21303 21.4134 9.5997 19.6534L13.6664 14.4934C14.2664 13.7334 15.1197 13.2933 16.013 13.2933C16.9064 13.2933 17.7597 13.7334 18.3597 14.4934L22.4264 19.6534C23.7997 21.3867 23.6664 22.7733 21.9864 24.2533L19.6797 26.3067C19.4797 26.48 19.2397 26.5601 19.013 26.5601Z" fill="black"/>
<path d="M16.0127 19.2C15.466 19.2 15.0127 18.7467 15.0127 18.2V14.8267C15.0127 14.28 15.466 13.8267 16.0127 13.8267C16.5594 13.8267 17.0127 14.28 17.0127 14.8267V18.2C17.0127 18.76 16.5594 19.2 16.0127 19.2Z" fill="black"/>
<path d="M16.0004 8.38675C15.3337 8.38675 14.667 8.13341 14.1604 7.62674L13.1204 6.58678C12.107 5.57345 12.107 3.9201 13.1204 2.90677L14.1604 1.86681C15.1737 0.853478 16.827 0.853478 17.8404 1.86681L18.8804 2.90677C19.8937 3.9201 19.8937 5.57345 18.8804 6.58678L17.8404 7.62674C17.3337 8.13341 16.667 8.38675 16.0004 8.38675ZM16.0004 3.1068C15.8404 3.1068 15.6937 3.16014 15.5737 3.28014L14.5337 4.3201C14.427 4.42677 14.3604 4.58678 14.3604 4.74678C14.3604 4.90678 14.427 5.05345 14.5337 5.17345L15.5737 6.21341C15.8004 6.44008 16.2004 6.44008 16.427 6.21341L17.467 5.17345C17.5737 5.06679 17.6404 4.90678 17.6404 4.74678C17.6404 4.58678 17.5737 4.4401 17.467 4.3201L16.427 3.28014C16.307 3.17347 16.1604 3.1068 16.0004 3.1068Z" fill="black"/>
<path d="M27.3997 18.7468H25.933C24.493 18.7468 23.333 17.5734 23.333 16.1467V14.6801C23.333 13.2401 24.5063 12.0801 25.933 12.0801H27.3997C28.8397 12.0801 29.9997 13.2534 29.9997 14.6801V16.1467C29.9997 17.5867 28.8263 18.7468 27.3997 18.7468ZM25.933 14.0801C25.5997 14.0801 25.333 14.3468 25.333 14.6801V16.1467C25.333 16.4801 25.5997 16.7468 25.933 16.7468H27.3997C27.733 16.7468 27.9997 16.4801 27.9997 16.1467V14.6801C27.9997 14.3468 27.733 14.0801 27.3997 14.0801H25.933Z" fill="black"/>
<path d="M6.06667 18.7468H4.6C3.16 18.7468 2 17.5734 2 16.1467V14.6801C2 13.2401 3.17333 12.0801 4.6 12.0801H6.06667C7.50667 12.0801 8.66667 13.2534 8.66667 14.6801V16.1467C8.66667 17.5867 7.49334 18.7468 6.06667 18.7468ZM4.6 14.0801C4.26666 14.0801 4 14.3468 4 14.6801V16.1467C4 16.4801 4.26666 16.7468 4.6 16.7468H6.06667C6.4 16.7468 6.66667 16.4801 6.66667 16.1467V14.6801C6.66667 14.3468 6.4 14.0801 6.06667 14.0801H4.6Z" fill="black"/>
<path d="M24.7206 14.4666C24.4672 14.4666 24.2139 14.3733 24.0139 14.1733L16.9472 7.10665C16.5606 6.71998 16.5606 6.07999 16.9472 5.69332C17.3339 5.30665 17.9739 5.30665 18.3606 5.69332L25.4272 12.76C25.8139 13.1466 25.8139 13.7866 25.4272 14.1733C25.2272 14.3733 24.9739 14.4666 24.7206 14.4666Z" fill="black"/>
<path d="M7.27987 14.4666C7.02653 14.4666 6.7732 14.3733 6.5732 14.1733C6.18654 13.7866 6.18654 13.1466 6.5732 12.76L13.6399 5.69332C14.0265 5.30665 14.6665 5.30665 15.0532 5.69332C15.4399 6.07999 15.4399 6.71998 15.0532 7.10665L7.98653 14.1733C7.78653 14.3733 7.5332 14.4666 7.27987 14.4666Z" fill="black"/>
</svg>
