<svg width="28" height="28" viewBox="0 0 28 28" fill="none" xmlns="http://www.w3.org/2000/svg">
<path fill-rule="evenodd" clip-rule="evenodd" d="M8 3C8 1.343 9.343 0 11 0H17C18.657 0 20 1.343 20 3V4H27C27.552 4 28 4.448 28 5C28 5.552 27.552 6 27 6H25V23C25 25.761 22.761 28 20 28H8C5.239 28 3 25.761 3 23V6H1C0.448 6 0 5.552 0 5C0 4.448 0.448 4 1 4H8V3ZM10 4H18V3C18 2.448 17.552 2 17 2H11C10.448 2 10 2.448 10 3V4ZM5 6V23C5 24.657 6.343 26 8 26H20C21.657 26 23 24.657 23 23V6H5ZM14 9C14.552 9 15 9.448 15 10V22C15 22.552 14.552 23 14 23C13.448 23 13 22.552 13 22V10C13 9.448 13.448 9 14 9Z" fill="black"/>
</svg>
