<svg width="93" height="47" viewBox="0 0 93 47" fill="none" xmlns="http://www.w3.org/2000/svg">
<g clip-path="url(#clip0_171_515)">
<path d="M0 45.0276V1.65798C0 0.576389 0.890358 -0.314331 1.97151 -0.314331H11.6171C13.101 -0.314331 14.0549 1.25504 13.3554 2.56991C9.24276 10.141 -0.0635964 30.6701 13.3554 40.6165C17.0652 43.3734 33.7064 49.6933 41.2109 36.3537C42.2072 34.5935 42.7372 41.9101 42.2496 45.3033C42.1224 46.2789 41.2744 47 40.2993 47H1.97151C0.890358 47 0 46.1092 0 45.0276Z" fill="black"/>
<path d="M38.6462 45.0276V12.1558C38.6462 11.0742 39.5154 10.1834 40.5965 10.1834C48.0162 10.2259 61.4563 9.01702 66.0141 12.9404C71.4834 16.7154 71.1655 26.5982 65.2085 29.6733C64.1274 30.2247 63.7034 31.5183 64.3606 32.5363L71.8014 43.9672C72.6494 45.2821 71.7166 46.9999 70.1479 46.9999H61.9863C60.7992 46.9999 59.8876 45.982 60.036 44.8155C60.5448 40.5952 61.1595 31.6032 56.4958 29.2279C55.2026 28.5705 54.8846 26.8739 55.987 25.9407C59.4636 23.0565 63.4066 15.655 52.5103 15.9731C51.196 16.0155 49.9665 16.5669 49.9665 17.8606V45.0276C49.9665 46.1092 49.0761 46.9999 47.995 46.9999H40.5965C39.5154 46.9999 38.625 46.1092 38.625 45.0276H38.6462Z" fill="black"/>
<path d="M68.6846 45.0277V12.0073C68.6846 10.9258 69.5749 10.035 70.6561 10.035H91.8763C91.8763 10.035 92.8514 14.2342 91.8763 15.0188C89.396 17.0336 81.3404 12.7496 79.0721 15.0188C77.1642 16.9275 76.9734 24.0745 79.0721 25.7711C81.4252 27.6798 88.866 23.8412 91.1979 25.7711C92.1519 26.5558 92.2367 30.0763 91.1979 30.7549C88.6328 32.3879 81.2132 28.6129 79.0721 30.7549C77.0794 32.7484 76.8886 40.2559 79.0721 42.0374C81.7008 44.1582 89.9684 39.8954 92.5758 42.0374C93.5298 42.8221 92.5758 47.0212 92.5758 47.0212H70.6561C69.5749 47.0212 68.6846 46.1305 68.6846 45.0489V45.0277Z" fill="black"/>
<path d="M26.6688 44.5186C4.81259 44.4762 5.27897 11.5407 26.3932 10.0986C47.6134 8.63525 50.0724 44.561 26.6688 44.5186ZM33.3888 31.7516C43.0132 22.5475 37.6286 12.6647 27.4107 18.0302C25.6088 18.9634 23.6585 20.3843 21.6234 22.3566C11.8295 31.794 16.8748 42.7584 28.1951 35.8659C29.8062 34.8903 31.5657 33.533 33.41 31.7516H33.3888Z" fill="#29ABE2"/>
</g>
<defs>
<clipPath id="clip0_171_515">
<rect width="93" height="47" fill="white"/>
</clipPath>
</defs>
</svg>
