<svg width="200" height="155" viewBox="0 0 200 155" fill="none" xmlns="http://www.w3.org/2000/svg">
<g clip-path="url(#clip0_66_1093)">
<path d="M0 150.754V57.3888C0 55.0603 1.91475 53.1428 4.2398 53.1428H24.9829C28.1742 53.1428 30.2257 56.5213 28.7212 59.352C19.8769 75.6509 -0.136767 119.845 28.7212 141.258C36.6993 147.193 72.4869 160.798 88.6255 132.081C90.7682 128.292 91.9079 144.043 90.8594 151.348C90.5858 153.448 88.7623 155 86.6652 155H4.2398C1.91475 155 0 153.082 0 150.754Z" fill="black"/>
<path d="M83.1091 150.754V79.9882C83.1091 77.6597 84.9782 75.7422 87.3033 75.7422C103.26 75.8335 132.163 73.2312 141.965 81.6774C153.727 89.8041 153.043 111.079 140.232 117.699C137.907 118.887 136.996 121.672 138.409 123.863L154.411 148.471C156.234 151.302 154.228 155 150.855 155H133.303C130.75 155 128.789 152.808 129.109 150.297C130.203 141.212 131.525 121.854 121.495 116.741C118.714 115.325 118.03 111.673 120.401 109.664C127.878 103.455 136.357 87.5213 112.924 88.2061C110.098 88.2974 107.454 89.4845 107.454 92.2694V150.754C107.454 153.082 105.539 155 103.214 155H87.3033C84.9782 155 83.0635 153.082 83.0635 150.754H83.1091Z" fill="black"/>
<path d="M147.709 150.754V79.6686C147.709 77.3401 149.624 75.4226 151.949 75.4226H197.584C197.584 75.4226 199.681 84.4624 197.584 86.1516C192.25 90.4889 174.926 81.2665 170.048 86.1516C165.945 90.2606 165.534 105.646 170.048 109.299C175.108 113.408 191.11 105.144 196.125 109.299C198.176 110.988 198.359 118.567 196.125 120.028C190.608 123.543 174.652 115.417 170.048 120.028C165.762 124.32 165.352 140.482 170.048 144.317C175.701 148.882 193.481 139.705 199.088 144.317C201.14 146.006 199.088 155.046 199.088 155.046H151.949C149.624 155.046 147.709 153.128 147.709 150.8V150.754Z" fill="black"/>
<path d="M57.3514 149.658C10.3489 149.567 11.3518 78.6642 56.7587 75.5596C102.394 72.4094 107.682 149.75 57.3514 149.658ZM71.8032 122.174C92.5007 102.359 80.921 81.0839 58.947 92.6348C55.0719 94.6436 50.8777 97.7025 46.5012 101.948C25.4389 122.265 36.2892 145.869 60.6338 131.031C64.0986 128.931 67.8825 126.009 71.8488 122.174H71.8032Z" fill="#29ABE2"/>
<path d="M94.7344 47.2076L113.472 33.1914" stroke="black" stroke-width="4" stroke-linecap="round" stroke-linejoin="round"/>
<path d="M53.6777 21.5167L113.32 29.0874" stroke="black" stroke-width="4" stroke-linecap="round" stroke-linejoin="round"/>
<path d="M54.5244 22.782L83.6104 48.6229" stroke="black" stroke-width="4" stroke-linecap="round" stroke-linejoin="round"/>
<path d="M53.5216 33.785C60.2694 33.785 65.7395 28.3069 65.7395 21.5494C65.7395 14.7918 60.2694 9.31372 53.5216 9.31372C46.7739 9.31372 41.3037 14.7918 41.3037 21.5494C41.3037 28.3069 46.7739 33.785 53.5216 33.785Z" fill="#29ABE2"/>
<path d="M129.747 10C140.199 10 148.696 18.489 148.696 28.9912C148.696 39.4934 140.199 47.9824 129.747 47.9824C119.295 47.9824 110.798 39.4934 110.798 28.9912C110.798 18.489 119.295 10 129.747 10Z" stroke="#29ABE2" stroke-width="20"/>
<path d="M86.4368 62.8218C93.3356 62.8218 98.9282 57.221 98.9282 50.3122C98.9282 43.4033 93.3356 37.8026 86.4368 37.8026C79.5379 37.8026 73.9453 43.4033 73.9453 50.3122C73.9453 57.221 79.5379 62.8218 86.4368 62.8218Z" fill="#29ABE2"/>
</g>
<defs>
<clipPath id="clip0_66_1093">
<rect width="200" height="155" fill="white"/>
</clipPath>
</defs>
</svg>
