<svg width="32" height="32" viewBox="0 0 32 32" fill="none" xmlns="http://www.w3.org/2000/svg">
<path d="M22.667 29H9.33366C3.45366 29 1.66699 27.2133 1.66699 21.3333V10.6667C1.66699 4.78667 3.45366 3 9.33366 3H22.667C28.547 3 30.3337 4.78667 30.3337 10.6667V21.3333C30.3337 27.2133 28.547 29 22.667 29ZM9.33366 5C4.56033 5 3.66699 5.90667 3.66699 10.6667V21.3333C3.66699 26.0933 4.56033 27 9.33366 27H22.667C27.4403 27 28.3337 26.0933 28.3337 21.3333V10.6667C28.3337 5.90667 27.4403 5 22.667 5H9.33366Z" fill="black"/>
<path d="M25.3337 11.6666H18.667C18.1203 11.6666 17.667 11.2133 17.667 10.6666C17.667 10.12 18.1203 9.66663 18.667 9.66663H25.3337C25.8803 9.66663 26.3337 10.12 26.3337 10.6666C26.3337 11.2133 25.8803 11.6666 25.3337 11.6666Z" fill="black"/>
<path d="M25.3333 17H20C19.4533 17 19 16.5467 19 16C19 15.4533 19.4533 15 20 15H25.3333C25.88 15 26.3333 15.4533 26.3333 16C26.3333 16.5467 25.88 17 25.3333 17Z" fill="black"/>
<path d="M25.3337 22.3334H22.667C22.1203 22.3334 21.667 21.88 21.667 21.3334C21.667 20.7867 22.1203 20.3334 22.667 20.3334H25.3337C25.8803 20.3334 26.3337 20.7867 26.3337 21.3334C26.3337 21.88 25.8803 22.3334 25.3337 22.3334Z" fill="black"/>
<path d="M11.3333 16.0534C9.45326 16.0534 7.91992 14.52 7.91992 12.64C7.91992 10.76 9.45326 9.22668 11.3333 9.22668C13.2133 9.22668 14.7466 10.76 14.7466 12.64C14.7466 14.52 13.2133 16.0534 11.3333 16.0534ZM11.3333 11.2267C10.5599 11.2267 9.91992 11.8667 9.91992 12.64C9.91992 13.4134 10.5599 14.0534 11.3333 14.0534C12.1066 14.0534 12.7466 13.4134 12.7466 12.64C12.7466 11.8667 12.1066 11.2267 11.3333 11.2267Z" fill="black"/>
<path d="M15.9999 22.7733C15.4932 22.7733 15.0532 22.3867 14.9999 21.8667C14.8532 20.4267 13.6932 19.2667 12.2399 19.1333C11.6265 19.08 11.0132 19.08 10.3999 19.1333C8.94654 19.2667 7.78654 20.4133 7.63987 21.8667C7.58654 22.4133 7.09321 22.8267 6.54654 22.76C5.99987 22.7067 5.59987 22.2133 5.65321 21.6667C5.89321 19.2667 7.79987 17.36 10.2132 17.1467C10.9465 17.08 11.6932 17.08 12.4265 17.1467C14.8265 17.3733 16.7465 19.28 16.9865 21.6667C17.0399 22.2133 16.6399 22.7067 16.0932 22.76C16.0665 22.7733 16.0265 22.7733 15.9999 22.7733Z" fill="black"/>
</svg>
