<svg width="30" height="28" viewBox="0 0 30 28" fill="none" xmlns="http://www.w3.org/2000/svg">
<path fill-rule="evenodd" clip-rule="evenodd" d="M0.0500488 23.5H0V5C0 2.239 2.24 0 5 0H12.5699L15.5699 5H23C25.76 5 28 7.239 28 10V14.02C29.49 15.16 30.31 17.113 29.84 19.124L28.6899 24.124C28.1699 26.393 26.1499 28 23.8199 28H5.03003C2.38003 28 0.300049 25.968 0.0500488 23.5ZM23 7C24.66 7 26 8.343 26 10V13.105C25.67 13.036 25.33 13 24.97 13H6.18005C4.46005 13 2.9 13.881 2 15.259V5C2 3.343 3.34 2 5 2H11.4301L14.4301 7H23ZM24.97 15C26.9 15 28.33 16.795 27.89 18.675L26.74 23.675C26.43 25.036 25.2099 26 23.8199 26H5.03003C3.10003 26 1.66999 24.205 2.10999 22.325L3.26001 17.325C3.57001 15.964 4.79005 15 6.18005 15H24.97Z" fill="black"/>
</svg>
